<svg id="Capa_1" enable-background="new 0 0 443.508 443.508" fill="white" height="512" viewBox="0 0 443.508 443.508" width="512" xmlns="http://www.w3.org/2000/svg"><path d="m274.28 333.754h-12.687l-35.313-35.313v-116.687h16v72c.02 17.665 14.335 31.98 32 32zm0-64c-8.832-.01-15.99-7.168-16-16h32v16zm-16-32v-64c0-4.418-3.582-8-8-8h-26.329c-2.601-8.924-7.445-17.032-14.071-23.55-.15-.151-.3-.301-.451-.45h48.851c5.909.006 11.608 2.196 16 6.15v89.85zm16-208v99.355c-5.044-2.212-10.492-3.354-16-3.355h-80v-48c.063-20.366-12.781-38.536-32-45.273v-2.727zm-152 56c4.418 0 8 3.582 8 8s-3.582 8-8 8h-24v-16zm-22.988 32h22.988c13.255 0 24-10.745 24-24s-10.745-24-24-24h-22.988c3.667-14.118 16.402-23.981 30.988-24 2.113-.02 4.222.187 6.291.615l.109.023c14.935 2.987 25.665 16.131 25.6 31.362v48h-4c-10.813.008-20.658 6.234-25.3 16h-2.7c-14.586-.019-27.321-9.882-30.988-24zm-57.012 88h16v24h-16zm32 0h64c4.418 0 8-3.582 8-8v-44c0-6.627 5.373-12 12-12s12 5.373 12 12v52c-.015 13.248-10.752 23.985-24 24h-72zm112 0v-52c.005-3.185-.536-6.346-1.6-9.348 5.227 2.021 9.965 5.129 13.9 9.118 5.903 5.787 9.789 13.319 11.083 21.484.012.074.024.146.038.219.394 2.153.587 4.338.579 6.527v80h-64v-16c22.081-.025 39.975-17.919 40-40zm-106.8 120.508c-3.126 1.168-5.199 4.154-5.2 7.492v80h-33.052l7.708-11.562c.876-1.314 1.344-2.858 1.344-4.438v-82.667l89.6-37.333h70.4v24c0 2.122.843 4.157 2.343 5.657l40 40c1.5 1.5 3.535 2.343 5.657 2.343h16v24h-36.5l-64.265-69.434c-1.515-1.637-3.645-2.567-5.875-2.566h-21.36c-.971 0-1.934.177-2.842.522l-7.963 3.026zm66.8 87.492v-95.442l1.469-.558h16.4l64.265 69.434c1.513 1.635 3.639 2.565 5.866 2.566h40v24zm144-128h8c4.418 0 8-3.582 8-8v-32c0-4.418-3.582-8-8-8h-8v-237.754l112 28v387.508l-112 28z"/></svg>