<?xml version="1.0"?>
<svg xmlns="http://www.w3.org/2000/svg" fill="white" viewBox="0 0 64 64" width="512" height="512"><g id="virus-anti_virus-network-connection-bug" data-name="virus-anti virus-network-connection-bug"><path d="M56.18,33a3,3,0,1,0,0-2H53.97a21.872,21.872,0,0,0-5.73-13.83l6.01-6a5.013,5.013,0,1,0-1.42-1.42l-6,6.01A21.872,21.872,0,0,0,33,10.03V7.82a3,3,0,1,0-2,0v2.21a21.872,21.872,0,0,0-13.83,5.73l-6-6.01a5.013,5.013,0,1,0-1.42,1.42l6.01,6A21.872,21.872,0,0,0,10.03,31H7.82a3,3,0,1,0,0,2h2.21a21.872,21.872,0,0,0,5.73,13.83l-6.01,6a5.013,5.013,0,1,0,1.42,1.42l6-6.01A21.872,21.872,0,0,0,31,53.97v2.21a3,3,0,1,0,2,0V53.97a21.872,21.872,0,0,0,13.83-5.73l6,6.01a5.013,5.013,0,1,0,1.42-1.42l-6.01-6A21.872,21.872,0,0,0,53.97,33ZM59,31a1,1,0,1,1-1,1A1,1,0,0,1,59,31ZM57,4a3,3,0,1,1-3,3A3.009,3.009,0,0,1,57,4ZM7,10a3,3,0,1,1,3-3A3.009,3.009,0,0,1,7,10ZM5,33a1,1,0,1,1,1-1A1,1,0,0,1,5,33ZM7,60a3,3,0,1,1,3-3A3.009,3.009,0,0,1,7,60Zm50-6a3,3,0,1,1-3,3A3.009,3.009,0,0,1,57,54ZM32,4a1,1,0,1,1-1,1A1,1,0,0,1,32,4Zm0,56a1,1,0,1,1,1-1A1,1,0,0,1,32,60ZM46.81,45.39l-1.1-1.1-1.42,1.42,1.1,1.1a19.868,19.868,0,0,1-26.78,0l1.1-1.1-1.42-1.42-1.1,1.1a19.868,19.868,0,0,1,0-26.78l1.1,1.1,1.42-1.42-1.1-1.1a19.868,19.868,0,0,1,26.78,0l-1.1,1.1,1.42,1.42,1.1-1.1a19.868,19.868,0,0,1,0,26.78Z"/><path d="M44.7,35l2.75,1.83,1.1-1.66-3-2A.967.967,0,0,0,45,33H41V31h3.7l2.75,1.83,1.1-1.66-3-2A.967.967,0,0,0,45,29H40.77a9.065,9.065,0,0,0-5.14-6.23A5.981,5.981,0,0,0,38,18V16H36v2a4,4,0,0,1-8,0V16H26v2a5.981,5.981,0,0,0,2.37,4.77A9.065,9.065,0,0,0,23.23,29H19a.967.967,0,0,0-.55.17l-3,2,1.1,1.66L19.3,31H23v2H19a.967.967,0,0,0-.55.17l-3,2,1.1,1.66L19.3,35H23v2H19a.967.967,0,0,0-.55.17l-3,2,1.1,1.66L19.3,39H23a9,9,0,0,0,18,0h3.7l2.75,1.83,1.1-1.66-3-2A.967.967,0,0,0,45,37H41V35ZM31,45.92a7,7,0,0,1-5.8-5.3L31,38.44Zm0-9.61-6,2.25V31a6.634,6.634,0,0,1,.08-1H31ZM25.69,28a6.977,6.977,0,0,1,12.62,0ZM33,45.92V38.44l5.8,2.18A7,7,0,0,1,33,45.92Zm6-7.36-6-2.25V30h5.92A6.634,6.634,0,0,1,39,31Z"/></g></svg>
