<?xml version="1.0"?>
<svg xmlns="http://www.w3.org/2000/svg" width="512" height="512" viewBox="0 0 128 128"><g fill="white"><path d="M121.25,7.374H6.75A6.758,6.758,0,0,0,0,14.124V99.652a6.233,6.233,0,0,0,6.226,6.226h65.49a24.246,24.246,0,0,0,44.617,0h5.441A6.233,6.233,0,0,0,128,99.652V14.124A6.758,6.758,0,0,0,121.25,7.374ZM3.5,14.124a3.254,3.254,0,0,1,3.25-3.25h114.5a3.254,3.254,0,0,1,3.25,3.25V26.249H3.5Zm90.524,103A20.748,20.748,0,0,1,79.616,81.447h28.816a20.748,20.748,0,0,1-14.408,35.679Zm10.041-43.074a3.254,3.254,0,0,1,3.25,3.25v.645H80.732V77.3a3.254,3.254,0,0,1,3.25-3.25Zm20.435,25.6a2.729,2.729,0,0,1-2.726,2.726h-4.253a24.235,24.235,0,0,0-6.706-23.484V77.3a6.758,6.758,0,0,0-6.75-6.75H95.774v-1.9a6.742,6.742,0,0,1,3.969-6.137,1.75,1.75,0,0,0-1.437-3.192,10.249,10.249,0,0,0-6.032,9.329v1.9H83.982a6.758,6.758,0,0,0-6.75,6.75v1.592a24.236,24.236,0,0,0-6.7,23.484H6.226A2.729,2.729,0,0,1,3.5,99.652v-69.9h121Z"/><path d="M118.25,16.812H49.687a1.75,1.75,0,0,0,0,3.5H118.25a1.75,1.75,0,0,0,0-3.5Z"/><path d="M14.377,16.812H9.75a1.75,1.75,0,0,0,0,3.5h4.627a1.75,1.75,0,0,0,0-3.5Z"/><path d="M27.689,16.812H23.062a1.75,1.75,0,0,0,0,3.5h4.627a1.75,1.75,0,0,0,0-3.5Z"/><path d="M41,16.812H36.375a1.75,1.75,0,0,0,0,3.5H41a1.75,1.75,0,0,0,0-3.5Z"/><path d="M99.024,55.421a1.749,1.749,0,0,0,1.75-1.75V49.983a1.75,1.75,0,0,0-3.5,0v3.688A1.75,1.75,0,0,0,99.024,55.421Z"/><path d="M104.152,57.545a1.744,1.744,0,0,0,1.238-.513L108,54.425a1.75,1.75,0,0,0-2.475-2.475l-2.607,2.608a1.75,1.75,0,0,0,1.237,2.987Z"/><path d="M104.527,60.924a1.75,1.75,0,0,0,1.75,1.75h3.688a1.75,1.75,0,0,0,0-3.5h-3.688A1.75,1.75,0,0,0,104.527,60.924Z"/><path d="M13.5,61.868h7.876a5.756,5.756,0,0,0,5.75-5.75v-10.3a5.756,5.756,0,0,0-5.75-5.75H13.5a1.75,1.75,0,0,0-1.75,1.75v18.3A1.749,1.749,0,0,0,13.5,61.868Zm1.75-18.3h6.126a2.253,2.253,0,0,1,2.25,2.25v10.3a2.253,2.253,0,0,1-2.25,2.25H15.25Z"/><path d="M32.751,61.868h7.876a5.756,5.756,0,0,0,5.75-5.75v-10.3a5.756,5.756,0,0,0-5.75-5.75H32.751A1.75,1.75,0,0,0,31,41.819v18.3A1.749,1.749,0,0,0,32.751,61.868Zm1.75-18.3h6.126a2.253,2.253,0,0,1,2.25,2.25v10.3a2.253,2.253,0,0,1-2.25,2.25H34.5Z"/><path d="M55,61.868H57.25A4.756,4.756,0,0,0,62,57.118V51.334a4.756,4.756,0,0,0-4.75-4.75H55a4.756,4.756,0,0,0-4.75,4.75v5.784A4.756,4.756,0,0,0,55,61.868Zm-1.25-10.534A1.252,1.252,0,0,1,55,50.084H57.25a1.252,1.252,0,0,1,1.25,1.25v5.784a1.251,1.251,0,0,1-1.25,1.25H55a1.251,1.251,0,0,1-1.25-1.25Z"/><path d="M76.328,58.368H68.452a1.75,1.75,0,0,0,0,3.5h7.876a5.756,5.756,0,0,0,5.75-5.75V50.969a1.749,1.749,0,0,0-1.75-1.75H70.2v-3.4a2.253,2.253,0,0,1,2.25-2.25h7.876a1.75,1.75,0,0,0,0-3.5H72.452a5.756,5.756,0,0,0-5.75,5.75v5.15a1.749,1.749,0,0,0,1.75,1.75H78.578v3.4A2.253,2.253,0,0,1,76.328,58.368Z"/></g></svg>
