<svg id="Capa_1" fill="white" enable-background="new 0 0 512 512" height="512" viewBox="0 0 512 512" width="512" xmlns="http://www.w3.org/2000/svg"><g><path d="m473.82 318.04c4.143 0 7.5-3.358 7.5-7.5v-59.66c0-21.295-17.325-38.62-38.62-38.62h-102.428v-88.591c0-3.214-2.049-6.072-5.093-7.103-3.044-1.032-6.408-.009-8.362 2.544l-49.498 64.651c-1.735 2.266-2.033 5.321-.77 7.88s3.87 4.179 6.725 4.179h9.673v16.44h-73.895v-94.426c9.798-7.262 16.163-18.906 16.163-32.01 0-19.395-13.94-35.588-32.325-39.107v-39.217c0-4.142-3.357-7.5-7.5-7.5s-7.5 3.358-7.5 7.5v39.217c-18.385 3.519-32.325 19.712-32.325 39.107 0 13.106 6.366 24.75 16.165 32.012v31.995c0 4.142 3.357 7.5 7.5 7.5s7.5-3.358 7.5-7.5v-25.141c2.79.621 5.686.959 8.66.959 2.975 0 5.871-.338 8.662-.96v87.571h-17.322v-27.43c0-4.142-3.357-7.5-7.5-7.5s-7.5 3.358-7.5 7.5v27.43h-102.43c-21.295 0-38.62 17.325-38.62 38.62v62.37c0 4.142 3.357 7.5 7.5 7.5s7.5-3.358 7.5-7.5v-62.37c0-4.724 1.399-9.125 3.798-12.821l157.808 122.865-153.849 129.942c-4.762-4.324-7.758-10.562-7.758-17.486v-125.13c0-4.142-3.357-7.5-7.5-7.5s-7.5 3.358-7.5 7.5v125.13c0 21.295 17.325 38.62 38.62 38.62h373.4c21.295 0 38.62-17.325 38.62-38.62v-127.84c0-4.142-3.357-7.5-7.5-7.5s-7.5 3.358-7.5 7.5v127.84c0 6.924-2.995 13.162-7.758 17.486l-153.847-129.942 157.808-122.865c2.399 3.696 3.798 8.097 3.798 12.821v59.66c0 4.142 3.358 7.5 7.5 7.5zm-303.255-232.216c0-13.688 11.137-24.825 24.825-24.825s24.825 11.137 24.825 24.825-11.137 24.825-24.825 24.825-24.825-11.137-24.825-24.825zm154.707 59.978v94.036c0 35.663-27.091 65.118-61.772 68.869v-17.462c25.102-3.646 44.447-25.311 44.447-51.407v-51.518c0-4.142-3.357-7.5-7.5-7.5h-1.985zm-32.325 81.458v12.578c0 17.803-12.658 32.705-29.447 36.181v-5.876c0-4.142-3.357-7.5-7.5-7.5s-7.5 3.358-7.5 7.5v60.61c0 4.142 3.357 7.5 7.5 7.5s7.5-3.358 7.5-7.5v-6.994c42.965-3.81 76.772-39.982 76.772-83.921v-12.578h102.428c2.673 0 5.241.453 7.638 1.275l-189.388 147.452c-2.914 2.269-6.986 2.269-9.9 0l-189.389-147.453c2.398-.822 4.966-1.275 7.638-1.275h223.648zm149.63 269.74h-373.154l149.96-126.658 22.452 17.48c4.17 3.248 9.167 4.871 14.165 4.871 4.997 0 9.995-1.624 14.165-4.87l22.452-17.48z"/></g></svg>